<svg xmlns="http://www.w3.org/2000/svg" width="700" height="320" viewBox="0 0 700 320" fill="none">
<g clip-path="url(#clip0_0_774)">
<rect width="700" height="320" rx="20" fill="white"/>
<g style="mix-blend-mode:plus-darker" opacity="0.32">
<path opacity="0.6" d="M21 1V561" stroke="#DEDEDE"/>
<path opacity="0.6" d="M41 1V561" stroke="#DEDEDE"/>
<path opacity="0.6" d="M61 1V561" stroke="#DEDEDE"/>
<path opacity="0.6" d="M81 1V561" stroke="#DEDEDE"/>
<path opacity="0.6" d="M101 1V561" stroke="#DEDEDE"/>
<path opacity="0.6" d="M121 1V561" stroke="#DEDEDE"/>
<path opacity="0.6" d="M141 1V561" stroke="#DEDEDE"/>
<path opacity="0.6" d="M161 1V561" stroke="#DEDEDE"/>
<path opacity="0.6" d="M181 1V561" stroke="#DEDEDE"/>
<path opacity="0.6" d="M201 1V561" stroke="#DEDEDE"/>
<path opacity="0.6" d="M221 1V561" stroke="#DEDEDE"/>
<path opacity="0.6" d="M241 1V561" stroke="#DEDEDE"/>
<path opacity="0.6" d="M261 1V561" stroke="#DEDEDE"/>
<path opacity="0.6" d="M281 1V561" stroke="#DEDEDE"/>
<path opacity="0.6" d="M301 1V561" stroke="#DEDEDE"/>
<path opacity="0.6" d="M321 1V561" stroke="#DEDEDE"/>
<path opacity="0.6" d="M341 1V561" stroke="#DEDEDE"/>
<path opacity="0.6" d="M361 1V561" stroke="#DEDEDE"/>
<path opacity="0.6" d="M381 1V561" stroke="#DEDEDE"/>
<path opacity="0.6" d="M401 1V561" stroke="#DEDEDE"/>
<path opacity="0.6" d="M421 1V281V561" stroke="#DEDEDE"/>
<path opacity="0.6" d="M441 1V561" stroke="#DEDEDE"/>
<path opacity="0.6" d="M461 1V561" stroke="#DEDEDE"/>
<path opacity="0.6" d="M481 1V561" stroke="#DEDEDE"/>
<path opacity="0.6" d="M501 1V561" stroke="#DEDEDE"/>
<path opacity="0.6" d="M521 1V561" stroke="#DEDEDE"/>
<path opacity="0.6" d="M541 1V561" stroke="#DEDEDE"/>
<path opacity="0.6" d="M561 1V561" stroke="#DEDEDE"/>
<path opacity="0.6" d="M581 1V561" stroke="#DEDEDE"/>
<path opacity="0.6" d="M601 1V561" stroke="#DEDEDE"/>
<path opacity="0.6" d="M621 1V561" stroke="#DEDEDE"/>
<path opacity="0.6" d="M641 1V561" stroke="#DEDEDE"/>
<path opacity="0.6" d="M661 1V561" stroke="#DEDEDE"/>
<path opacity="0.6" d="M681 1V561" stroke="#DEDEDE"/>
<path opacity="0.6" d="M1 301L698 301" stroke="#DEDEDE"/>
<path opacity="0.6" d="M1 281L698 281" stroke="#DEDEDE"/>
<path opacity="0.6" d="M1 261L698 261" stroke="#DEDEDE"/>
<path opacity="0.6" d="M1 241L698 241" stroke="#DEDEDE"/>
<path opacity="0.6" d="M1 221L698 221" stroke="#DEDEDE"/>
<path opacity="0.6" d="M1 201L698 201" stroke="#DEDEDE"/>
<path opacity="0.6" d="M1 181L698 181" stroke="#DEDEDE"/>
<path opacity="0.6" d="M1 161L698 161" stroke="#DEDEDE"/>
<path opacity="0.6" d="M1 141L698 141" stroke="#DEDEDE"/>
<path opacity="0.6" d="M1 121L349.5 121L698 121" stroke="#DEDEDE"/>
<path opacity="0.6" d="M1 101L698 101" stroke="#DEDEDE"/>
<path opacity="0.6" d="M1 81L698 81" stroke="#DEDEDE"/>
<path opacity="0.6" d="M1 61L698 61" stroke="#DEDEDE"/>
<path opacity="0.6" d="M1 41L698 41" stroke="#DEDEDE"/>
<path opacity="0.6" d="M1 21L698 21" stroke="#DEDEDE"/>
</g>
<g style="mix-blend-mode:color-dodge" opacity="0.2">
<circle opacity="0.2" cx="408.292" cy="408.292" r="407.792" transform="matrix(-1 0 0 1 967.274 -225.141)" fill="#F0F0F0" stroke="#DEDEDE"/>
<path opacity="0.2" d="M285.298 159.5C285.298 315.98 412.45 442.835 569.303 442.835C726.156 442.835 853.309 315.98 853.309 159.5C853.309 3.01972 726.156 -123.835 569.303 -123.835C412.45 -123.835 285.298 3.01972 285.298 159.5Z" fill="#B2E9EF" stroke="#DEDEDE"/>
<circle cx="541.5" cy="541.5" r="541" transform="matrix(-1 0 0 1 1088 -358)" stroke="#DEDEDE"/>
</g>
<ellipse cx="360.557" cy="161" rx="132.557" ry="133" transform="rotate(-180 360.557 161)" stroke="url(#paint0_linear_0_774)"/>
<ellipse cx="360.557" cy="161" rx="132.557" ry="133" transform="rotate(-180 360.557 161)" stroke="url(#paint1_radial_0_774)"/>
<ellipse cx="360.556" cy="161" rx="103.653" ry="104" stroke="url(#paint2_radial_0_774)"/>
<ellipse cx="360.556" cy="161" rx="103.653" ry="104" stroke="url(#paint3_radial_0_774)"/>
<ellipse cx="360.556" cy="161" rx="76.7433" ry="77" stroke="url(#paint4_radial_0_774)"/>
<ellipse cx="360.557" cy="161" rx="103.653" ry="104" fill="url(#paint5_radial_0_774)"/>
<line x1="326.82" y1="161.546" x2="395.82" y2="161.546" stroke="url(#paint6_radial_0_774)" stroke-opacity="0.3" stroke-width="0.5" style="mix-blend-mode:multiply"/>
<line x1="362.274" y1="128" x2="362.274" y2="197" stroke="url(#paint7_radial_0_774)" stroke-opacity="0.3" stroke-width="0.5" style="mix-blend-mode:multiply"/>
<g filter="url(#filter0_d_0_774)">
<circle cx="360.557" cy="161.5" r="49.92" stroke="url(#paint8_linear_0_774)"/>
<circle cx="360.557" cy="161.5" r="50.42" fill="url(#paint9_radial_0_774)" stroke="white"/>
<line x1="326.557" y1="161.046" x2="395.557" y2="161.046" stroke="url(#paint10_radial_0_774)" stroke-opacity="0.3" stroke-width="0.5" style="mix-blend-mode:multiply"/>
<line x1="362.011" y1="127.5" x2="362.011" y2="196.5" stroke="url(#paint11_radial_0_774)" stroke-opacity="0.3" stroke-width="0.5" style="mix-blend-mode:multiply"/>
<path fill-rule="evenodd" clip-rule="evenodd" d="M380.574 161.75C380.574 169.896 375.282 176.5 367.472 176.5C363.519 176.5 352.962 174.551 349.861 173.088C344.093 170.689 340.84 167.197 340.84 161.75C340.84 156.303 344.093 152.811 349.861 150.412C352.962 148.949 363.519 147 367.472 147C375.282 147 380.574 153.604 380.574 161.75ZM353.082 161.75C353.082 164.06 351.255 165.933 349.001 165.933C346.748 165.933 344.921 164.06 344.921 161.75C344.921 159.44 346.748 157.567 349.001 157.567C351.255 157.567 353.082 159.44 353.082 161.75ZM375.717 161.75C375.717 166.249 372.011 169.896 367.439 169.896C362.868 169.896 359.162 166.249 359.162 161.75C359.162 157.251 362.868 153.604 367.439 153.604C372.011 153.604 375.717 157.251 375.717 161.75Z" fill="#FBFCFD"/>
</g>
</g>
<defs>
<filter id="filter0_d_0_774" x="275.84" y="67" width="189.433" height="189" filterUnits="userSpaceOnUse" color-interpolation-filters="sRGB">
<feFlood flood-opacity="0" result="BackgroundImageFix"/>
<feColorMatrix in="SourceAlpha" type="matrix" values="0 0 0 0 0 0 0 0 0 0 0 0 0 0 0 0 0 0 127 0" result="hardAlpha"/>
<feMorphology radius="2" operator="erode" in="SourceAlpha" result="effect1_dropShadow_0_774"/>
<feOffset dx="10"/>
<feGaussianBlur stdDeviation="6"/>
<feColorMatrix type="matrix" values="0 0 0 0 0.0627451 0 0 0 0 0.0941176 0 0 0 0 0.156863 0 0 0 0.15 0"/>
<feBlend mode="normal" in2="BackgroundImageFix" result="effect1_dropShadow_0_774"/>
<feBlend mode="normal" in="SourceGraphic" in2="effect1_dropShadow_0_774" result="shape"/>
</filter>
<linearGradient id="paint0_linear_0_774" x1="360.113" y1="167.5" x2="343.613" y2="170.5" gradientUnits="userSpaceOnUse">
<stop offset="0.503162" stop-color="#B2E9EF" stop-opacity="0"/>
<stop offset="1" stop-color="#0D656E"/>
</linearGradient>
<radialGradient id="paint1_radial_0_774" cx="0" cy="0" r="1" gradientUnits="userSpaceOnUse" gradientTransform="translate(327.613 154.5) rotate(-4.38192) scale(130.883 13.4257)">
<stop stop-color="#B2E9EF" stop-opacity="0"/>
<stop offset="1" stop-color="#0D656E"/>
</radialGradient>
<radialGradient id="paint2_radial_0_774" cx="0" cy="0" r="1" gradientUnits="userSpaceOnUse" gradientTransform="translate(372.72 160.218) rotate(-10.2348) scale(28.6055 22.4758)">
<stop stop-color="#B2E9EF" stop-opacity="0"/>
<stop offset="1" stop-color="#0D656E"/>
</radialGradient>
<radialGradient id="paint3_radial_0_774" cx="0" cy="0" r="1" gradientUnits="userSpaceOnUse" gradientTransform="translate(372.72 160.218) rotate(-10.2348) scale(28.6055 22.4758)">
<stop stop-color="#B2E9EF" stop-opacity="0"/>
<stop offset="1" stop-color="#0D656E"/>
</radialGradient>
<radialGradient id="paint4_radial_0_774" cx="0" cy="0" r="1" gradientUnits="userSpaceOnUse" gradientTransform="translate(369.562 160.421) rotate(-10.2348) scale(21.1791 16.6407)">
<stop stop-color="#B2E9EF" stop-opacity="0"/>
<stop offset="1" stop-color="#0D656E"/>
</radialGradient>
<radialGradient id="paint5_radial_0_774" cx="0" cy="0" r="1" gradientUnits="userSpaceOnUse" gradientTransform="translate(360.557 161) rotate(90) scale(104 103.653)">
<stop stop-color="#17BECF" stop-opacity="0.3"/>
<stop offset="1" stop-color="#17BECF" stop-opacity="0.1"/>
</radialGradient>
<radialGradient id="paint6_radial_0_774" cx="0" cy="0" r="1" gradientUnits="userSpaceOnUse" gradientTransform="translate(361.672 161.796) rotate(-180) scale(31.3316 1090.25)">
<stop stop-color="#98DDE4" stop-opacity="0.6"/>
<stop offset="1" stop-color="white"/>
</radialGradient>
<radialGradient id="paint7_radial_0_774" cx="0" cy="0" r="1" gradientUnits="userSpaceOnUse" gradientTransform="translate(362.024 162.852) rotate(-90) scale(31.3316 1090.25)">
<stop stop-color="#98DDE4" stop-opacity="0.6"/>
<stop offset="1" stop-color="white"/>
</radialGradient>
<linearGradient id="paint8_linear_0_774" x1="352.858" y1="163.564" x2="379.967" y2="158.653" gradientUnits="userSpaceOnUse">
<stop stop-color="#B2E9EF" stop-opacity="0"/>
<stop offset="1" stop-color="#0D656E"/>
</linearGradient>
<radialGradient id="paint9_radial_0_774" cx="0" cy="0" r="1" gradientUnits="userSpaceOnUse" gradientTransform="translate(360.557 161.5) rotate(90) scale(49.92)">
<stop stop-color="#118F9B"/>
<stop offset="1" stop-color="#0C5F68"/>
</radialGradient>
<radialGradient id="paint10_radial_0_774" cx="0" cy="0" r="1" gradientUnits="userSpaceOnUse" gradientTransform="translate(361.409 161.296) rotate(-180) scale(31.3316 1090.25)">
<stop stop-color="#98DDE4" stop-opacity="0.6"/>
<stop offset="1" stop-color="white"/>
</radialGradient>
<radialGradient id="paint11_radial_0_774" cx="0" cy="0" r="1" gradientUnits="userSpaceOnUse" gradientTransform="translate(361.761 162.352) rotate(-90) scale(31.3316 1090.25)">
<stop stop-color="#98DDE4" stop-opacity="0.6"/>
<stop offset="1" stop-color="white"/>
</radialGradient>
<clipPath id="clip0_0_774">
<rect width="700" height="320" rx="20" fill="white"/>
</clipPath>
</defs>
</svg>